<?xml version="1.0" encoding="utf-8"?>
<!-- Generator: Adobe Illustrator 24.0.2, SVG Export Plug-In . SVG Version: 6.00 Build 0)  -->
<svg version="1.1" id="레이어_1" xmlns="http://www.w3.org/2000/svg" xmlns:xlink="http://www.w3.org/1999/xlink" x="0px"
	 y="0px" viewBox="0 0 23 23" style="enable-background:new 0 0 23 23;" xml:space="preserve">
<style type="text/css">
	.st0{fill:none;}
	.st1{fill:#333333;}
</style>
<path class="st0" d="M-0.5,1.7h24v24h-24V1.7z"/>
<path class="st1" d="M16,2.4c-1.7,0-3.4,0.8-4.5,2.1C10.4,3.2,8.7,2.4,7,2.4c-3.1,0-5.5,2.4-5.5,5.5c0,3.8,3.4,6.9,8.6,11.5l1.4,1.3
	l1.4-1.3c5.2-4.7,8.6-7.8,8.6-11.5C21.5,4.8,19.1,2.4,16,2.4z M11.6,17.9L11.5,18l-0.1-0.1c-4.8-4.3-7.9-7.1-7.9-10
	c0-2,1.5-3.5,3.5-3.5c1.5,0,3,1,3.6,2.4h1.9c0.5-1.4,2-2.4,3.5-2.4c2,0,3.5,1.5,3.5,3.5C19.5,10.8,16.4,13.6,11.6,17.9z"/>
</svg>
