<?xml version="1.0" encoding="utf-8"?>
<!-- Generator: Adobe Illustrator 25.2.1, SVG Export Plug-In . SVG Version: 6.00 Build 0)  -->
<svg version="1.1" id="레이어_1" xmlns="http://www.w3.org/2000/svg" xmlns:xlink="http://www.w3.org/1999/xlink" x="0px"
	 y="0px" viewBox="0 0 52 52" style="enable-background:new 0 0 52 52;" xml:space="preserve">
<style type="text/css">
	.st0{fill:none;}
	.st1{fill:#DDDDDD;}
	.st2{fill:#999999;}
	.st3{fill:#D93030;}
	.st4{fill:#555555;}
</style>
<rect x="2" y="2" class="st0" width="48" height="48"/>
<polygon class="st1" points="30.1,23.5 26,21.7 30.1,19.8 32,15.7 33.9,19.8 38,21.7 33.9,23.5 32,27.7 "/>
<polygon class="st2" points="10.4,32.5 12.3,28.3 16.4,26.5 12.3,24.6 10.4,20.5 8.5,24.6 4.4,26.5 8.5,28.3 "/>
<polygon class="st3" points="18.8,22.9 21.1,17.9 26,15.7 21.1,13.4 18.8,8.5 16.5,13.4 11.6,15.7 16.5,17.9 "/>
<polygon class="st4" points="44.9,19.3 31.4,34.4 23.6,26.6 9.2,41 11.7,43.5 23.6,31.7 31.6,39.7 47.6,21.7 "/>
</svg>
