<?xml version="1.0" encoding="utf-8"?>
<!-- Generator: Adobe Illustrator 25.2.1, SVG Export Plug-In . SVG Version: 6.00 Build 0)  -->
<svg version="1.1" id="레이어_1" xmlns="http://www.w3.org/2000/svg" xmlns:xlink="http://www.w3.org/1999/xlink" x="0px"
	 y="0px" viewBox="0 0 52 52" style="enable-background:new 0 0 52 52;" xml:space="preserve">
<style type="text/css">
	.st0{fill:#D93030;}
	.st1{fill:#555555;}
</style>
<path class="st0" d="M19.5,21.5V14c0-2.8,2.2-5,5-5s5,2.2,5,5v7.5c2.4-1.6,4-4.4,4-7.5c0-5-4-9-9-9s-9,4-9,9
	C15.5,17.1,17.1,19.9,19.5,21.5z"/>
<path class="st1" d="M39.2,30.7l-9.1-4.5C29.8,26.1,29.4,26,29,26h-1.5V14c0-1.7-1.3-3-3-3s-3,1.3-3,3v21.5C14.3,34,14.4,34,14.2,34
	c-0.6,0-1.2,0.3-1.6,0.7L11,36.2l9.9,9.9c0.5,0.5,1.3,0.9,2.1,0.9h13.6c1.5,0,2.7-1.1,2.9-2.6L41,33.9c0-0.1,0-0.3,0-0.4
	C41,32.3,40.2,31.2,39.2,30.7z"/>
</svg>
